<svg width="20" height="21" viewBox="0 0 20 21" fill="none" xmlns="http://www.w3.org/2000/svg">
<path d="M14.1666 2.14844H5.83329C3.53211 2.14844 1.66663 4.01392 1.66663 6.3151V14.6484C1.66663 16.9496 3.53211 18.8151 5.83329 18.8151H14.1666C16.4678 18.8151 18.3333 16.9496 18.3333 14.6484V6.3151C18.3333 4.01392 16.4678 2.14844 14.1666 2.14844Z" stroke="white" stroke-width="2" stroke-linecap="round" stroke-linejoin="round"/>
<path d="M13.3331 9.95645C13.436 10.65 13.3175 11.3583 12.9946 11.9806C12.6717 12.603 12.1608 13.1076 11.5345 13.4228C10.9082 13.7381 10.1985 13.8478 9.50629 13.7364C8.81407 13.625 8.1746 13.2982 7.67883 12.8024C7.18306 12.3067 6.85624 11.6672 6.74485 10.975C6.63347 10.2827 6.74318 9.57303 7.0584 8.94676C7.37362 8.3205 7.87829 7.80957 8.50062 7.48665C9.12295 7.16374 9.83126 7.04528 10.5248 7.14812C11.2322 7.25302 11.8872 7.58267 12.3929 8.08837C12.8986 8.59408 13.2282 9.24902 13.3331 9.95645Z" stroke="white" stroke-width="2" stroke-linecap="round" stroke-linejoin="round"/>
<path d="M14.5834 5.89844H14.5917" stroke="white" stroke-width="2" stroke-linecap="round" stroke-linejoin="round"/>
</svg>
