<svg width="20" height="21" viewBox="0 0 20 21" fill="none" xmlns="http://www.w3.org/2000/svg">
<g clip-path="url(#clip0_21_8)">
<path fill-rule="evenodd" clip-rule="evenodd" d="M15.3779 4.74729C13.6846 3.04812 11.4346 2.11035 9.03809 2.11035C4.09863 2.11035 0.0761722 6.14366 0.0761722 11.1C0.073242 12.6846 0.486328 14.2308 1.27148 15.5949L0 20.2544L4.75195 19.002C6.05859 19.7193 7.53516 20.0956 9.03516 20.0985H9.03809C13.9775 20.0985 17.9971 16.0652 18 11.1059C18 8.70416 17.0684 6.44645 15.3779 4.74729ZM9.03809 18.5787H9.03516C7.69922 18.5787 6.38672 18.2171 5.24414 17.538L4.97168 17.3764L2.15039 18.1172L2.90332 15.3597L2.72754 15.0775C1.98047 13.8869 1.58789 12.5111 1.58789 11.1C1.58789 6.98148 4.93066 3.63019 9.04102 3.63019C11.0303 3.63019 12.8994 4.40922 14.3057 5.82029C15.7119 7.2343 16.4854 9.10984 16.4854 11.1059C16.4854 15.2274 13.1426 18.5787 9.03809 18.5787ZM13.1221 12.9815C12.8994 12.8698 11.7979 12.3259 11.5928 12.2524C11.3877 12.176 11.2383 12.1407 11.0889 12.3641C10.9395 12.5905 10.5117 13.0961 10.3799 13.246C10.251 13.393 10.1191 13.4136 9.89648 13.3019C9.6709 13.1902 8.9502 12.9521 8.09473 12.1848C7.42969 11.591 6.97852 10.8531 6.84961 10.6297C6.71777 10.4033 6.83496 10.2828 6.94629 10.1711C7.04883 10.0711 7.17188 9.90945 7.2832 9.77716C7.39453 9.64781 7.43262 9.55374 7.50879 9.40382C7.58203 9.25389 7.54395 9.1216 7.48828 9.00989C7.43262 8.89818 6.98438 7.78991 6.79688 7.34013C6.61523 6.90211 6.43066 6.96384 6.29297 6.95502C6.16406 6.94914 6.01465 6.94914 5.86524 6.94914C5.71582 6.94914 5.47266 7.005 5.26758 7.23136C5.0625 7.45478 4.48535 7.99863 4.48535 9.10396C4.48535 10.2093 5.28809 11.2794 5.39941 11.4293C5.51074 11.5763 6.97852 13.8457 9.22559 14.8188C9.75879 15.051 10.1748 15.1892 10.5 15.2921C11.0361 15.4626 11.5254 15.4391 11.9121 15.3832C12.3428 15.3185 13.2363 14.8394 13.4238 14.3132C13.6084 13.7899 13.6084 13.3401 13.5527 13.246C13.4971 13.152 13.3477 13.0961 13.1221 12.9815Z" fill="white"/>
</g>
<defs>
<clipPath id="clip0_21_8">
<rect width="20" height="20" fill="white" transform="translate(0 0.481689)"/>
</clipPath>
</defs>
</svg>
